<svg width="30" height="30" viewBox="0 0 30 30" fill="none" xmlns="http://www.w3.org/2000/svg">
<path d="M0.714286 4.97477H5.77857C5.95258 5.96804 6.47125 6.86815 7.24337 7.51677C8.01549 8.16538 8.9916 8.52096 10 8.52096C11.0084 8.52096 11.9845 8.16538 12.7566 7.51677C13.5287 6.86815 14.0474 5.96804 14.2214 4.97477H29.2857C29.4752 4.97477 29.6568 4.89951 29.7908 4.76556C29.9247 4.6316 30 4.44992 30 4.26048C30 4.07104 29.9247 3.88936 29.7908 3.75541C29.6568 3.62145 29.4752 3.5462 29.2857 3.5462H14.2214C14.0474 2.55292 13.5287 1.65281 12.7566 1.0042C11.9845 0.355581 11.0084 0 10 0C8.9916 0 8.01549 0.355581 7.24337 1.0042C6.47125 1.65281 5.95258 2.55292 5.77857 3.5462H0.714286C0.524845 3.5462 0.343164 3.62145 0.209209 3.75541C0.0752549 3.88936 0 4.07104 0 4.26048C0 4.44992 0.0752549 4.6316 0.209209 4.76556C0.343164 4.89951 0.524845 4.97477 0.714286 4.97477ZM10 1.40334C10.5651 1.40334 11.1175 1.57091 11.5873 1.88485C12.0572 2.1988 12.4234 2.64503 12.6397 3.1671C12.8559 3.68917 12.9125 4.26365 12.8022 4.81788C12.692 5.37211 12.4199 5.88121 12.0203 6.28079C11.6207 6.68037 11.1116 6.95248 10.5574 7.06273C10.0032 7.17297 9.42869 7.11639 8.90662 6.90014C8.38454 6.68389 7.93832 6.31768 7.62437 5.84782C7.31043 5.37797 7.14286 4.82557 7.14286 4.26048C7.14286 3.50272 7.44388 2.77599 7.97969 2.24018C8.51551 1.70436 9.24224 1.40334 10 1.40334ZM29.2857 14.2605H24.2214C24.0474 13.2672 23.5287 12.3671 22.7566 11.7185C21.9845 11.0699 21.0084 10.7143 20 10.7143C18.9916 10.7143 18.0155 11.0699 17.2434 11.7185C16.4713 12.3671 15.9526 13.2672 15.7786 14.2605H0.714286C0.524845 14.2605 0.343164 14.3357 0.209209 14.4697C0.0752549 14.6036 0 14.7853 0 14.9748C0 15.1642 0.0752549 15.3459 0.209209 15.4798C0.343164 15.6138 0.524845 15.6891 0.714286 15.6891H15.7786C15.9526 16.6823 16.4713 17.5824 17.2434 18.2311C18.0155 18.8797 18.9916 19.2352 20 19.2352C21.0084 19.2352 21.9845 18.8797 22.7566 18.2311C23.5287 17.5824 24.0474 16.6823 24.2214 15.6891H29.2857C29.4752 15.6891 29.6568 15.6138 29.7908 15.4798C29.9247 15.3459 30 15.1642 30 14.9748C30 14.7853 29.9247 14.6036 29.7908 14.4697C29.6568 14.3357 29.4752 14.2605 29.2857 14.2605ZM20 17.8319C19.4349 17.8319 18.8825 17.6643 18.4127 17.3504C17.9428 17.0364 17.5766 16.5902 17.3603 16.0681C17.1441 15.5461 17.0875 14.9716 17.1978 14.4174C17.308 13.8631 17.5801 13.354 17.9797 12.9545C18.3793 12.5549 18.8884 12.2828 19.4426 12.1725C19.9968 12.0623 20.5713 12.1189 21.0934 12.3351C21.6155 12.5514 22.0617 12.9176 22.3756 13.3874C22.6896 13.8573 22.8571 14.4097 22.8571 14.9748C22.8571 15.7325 22.5561 16.4593 22.0203 16.9951C21.4845 17.5309 20.7578 17.8319 20 17.8319ZM29.2857 24.9748H14.2214C14.0474 23.9815 13.5287 23.0814 12.7566 22.4328C11.9845 21.7842 11.0084 21.4286 10 21.4286C8.9916 21.4286 8.01549 21.7842 7.24337 22.4328C6.47125 23.0814 5.95258 23.9815 5.77857 24.9748H0.714286C0.524845 24.9748 0.343164 25.05 0.209209 25.184C0.0752549 25.3179 0 25.4996 0 25.6891C0 25.8785 0.0752549 26.0602 0.209209 26.1941C0.343164 26.3281 0.524845 26.4033 0.714286 26.4033H5.77857C5.95258 27.3966 6.47125 28.2967 7.24337 28.9453C8.01549 29.594 8.9916 29.9495 10 29.9495C11.0084 29.9495 11.9845 29.594 12.7566 28.9453C13.5287 28.2967 14.0474 27.3966 14.2214 26.4033H29.2857C29.4752 26.4033 29.6568 26.3281 29.7908 26.1941C29.9247 26.0602 30 25.8785 30 25.6891C30 25.4996 29.9247 25.3179 29.7908 25.184C29.6568 25.05 29.4752 24.9748 29.2857 24.9748ZM10 28.5462C9.43491 28.5462 8.88251 28.3786 8.41266 28.0647C7.9428 27.7507 7.57659 27.3045 7.36034 26.7824C7.14409 26.2604 7.08751 25.6859 7.19776 25.1317C7.308 24.5774 7.58012 24.0683 7.97969 23.6687C8.37927 23.2692 8.88837 22.9971 9.4426 22.8868C9.99683 22.7766 10.5713 22.8331 11.0934 23.0494C11.6155 23.2656 12.0617 23.6319 12.3756 24.1017C12.6896 24.5716 12.8571 25.124 12.8571 25.6891C12.8571 26.4468 12.5561 27.1735 12.0203 27.7094C11.4845 28.2452 10.7578 28.5462 10 28.5462Z" fill="#4DD79E"/>
</svg>
