<svg width="70" height="70" viewBox="0 0 70 70" fill="none" xmlns="http://www.w3.org/2000/svg">
<rect width="70" height="70" rx="35" fill="#99E6EB"/>
<path fill-rule="evenodd" clip-rule="evenodd" d="M49.6364 32.3182C49.6364 43.4545 35.3182 53 35.3182 53C35.3182 53 21 43.4545 21 32.3182C21 28.5208 22.5085 24.8789 25.1937 22.1937C27.8789 19.5085 31.5208 18 35.3182 18C39.1156 18 42.7575 19.5085 45.4427 22.1937C48.1278 24.8789 49.6364 28.5208 49.6364 32.3182V32.3182Z" stroke="white" stroke-width="2" stroke-linecap="round" stroke-linejoin="round"/>
<path d="M35.3183 37.0909C37.9542 37.0909 40.091 34.954 40.091 32.3181C40.091 29.6822 37.9542 27.5454 35.3183 27.5454C32.6824 27.5454 30.5455 29.6822 30.5455 32.3181C30.5455 34.954 32.6824 37.0909 35.3183 37.0909Z" stroke="white" stroke-width="2" stroke-linecap="round" stroke-linejoin="round"/>
</svg>
