<svg width="625" height="332" viewBox="0 0 625 332" fill="none" xmlns="http://www.w3.org/2000/svg">
<path d="M180.912 113.782L219.412 54.7815C228.903 40.1025 234.794 34.4793 246.912 31.7815C347.193 2.72484 393.495 -1.624 435.412 4.28137C457.384 8.86008 472.59 14.7303 501.912 27.7081C509.925 27.5707 518.884 26.6807 528.912 24.7815C594.912 12.2813 599.912 -1.21848 614.912 71.2815C624.467 88.7114 623.965 107.834 619.412 147.781C626.635 168.399 622.027 271.192 608.412 276.281C605.58 282.839 571.512 281.821 533.412 283.281C504.183 331.028 477.867 336.914 420.412 325.281C384.035 318.661 371.758 310.358 357.412 291.281C262.85 304.618 220.179 307.031 155.412 305.781C129.919 321.214 106.392 318.684 62.9118 310.781C-13.7945 285.215 -9.08844 200.781 27.9118 163.281C41.339 130.457 61.9813 124.34 102.912 117.281C133.053 116.317 149.849 115.907 180.912 113.782Z" fill="white"/>
<path d="M619.412 147.781C623.965 107.834 624.467 88.7114 614.912 71.2815C599.912 -1.21848 594.912 12.2813 528.912 24.7815C518.884 26.6807 509.925 27.5707 501.912 27.7081C472.59 14.7303 457.384 8.86008 435.412 4.28137C393.495 -1.624 347.193 2.72484 246.912 31.7815C234.794 34.4793 228.903 40.1025 219.412 54.7815L180.912 113.782C149.849 115.907 133.053 116.317 102.912 117.281C61.9813 124.34 41.339 130.457 27.9118 163.281M619.412 147.781C626.635 168.399 622.027 271.192 608.412 276.281C605.58 282.839 571.512 281.821 533.412 283.281M619.412 147.781C616.761 141.056 614.354 138.208 606.912 136.281L596.412 202.281C571.425 226.858 557.287 240.926 542.184 243.281M533.412 283.281C504.183 331.028 477.867 336.914 420.412 325.281C384.035 318.661 371.758 310.358 357.412 291.281M533.412 283.281C538.289 269.494 541.16 256.058 542.184 243.281M357.412 291.281C262.85 304.618 220.179 307.031 155.412 305.781M357.412 291.281C440.548 280.939 443.971 281.561 457.912 172.281C459.793 161.281 460.5 151.043 464.412 139.281C516.406 144.968 546.62 187.946 542.184 243.281M155.412 305.781C129.919 321.214 106.392 318.684 62.9118 310.781C-13.7945 285.215 -9.08844 200.781 27.9118 163.281M155.412 305.781C113.439 306.495 83.7908 304.881 60.7692 296.281C46.2086 287.534 35.8516 273.392 27.9118 252.086C20.4766 235.502 18.692 214.976 19.8357 190.281C21.9623 181.781 24.6713 172.784 27.9118 163.281" stroke="#99E6EB" stroke-width="3"/>
<path d="M251.912 133.047C343.06 133.047 365.463 129.463 373.443 36.2811C368.379 95.4157 377.057 124.606 429.912 132.688C385.857 133.376 365.156 169.961 365.156 241.281C365.156 177.129 360.86 133.047 251.912 133.047Z" fill="#99E6EB" stroke="#99E6EB" stroke-width="2"/>
</svg>
