<svg width="70" height="70" viewBox="0 0 70 70" fill="none" xmlns="http://www.w3.org/2000/svg">
<rect width="70" height="70" rx="35" fill="#99E6EB"/>
<path d="M35.8144 18.813L40.0819 27.3886C40.2912 27.8197 40.703 28.121 41.1822 28.1936L50.7341 29.5736C51.1217 29.6265 51.4718 29.8298 51.7066 30.1383C51.9414 30.4468 52.0414 30.835 51.9843 31.2165C51.9363 31.5301 51.7839 31.8191 51.5509 32.0379L44.6328 38.7407C44.2832 39.071 44.1264 39.553 44.2161 40.0221L45.8831 49.4685C46.0037 50.2469 45.4701 50.9772 44.6829 51.1113C44.3582 51.1615 44.0258 51.1097 43.7327 50.9635L35.2143 46.5114C34.7888 46.2805 34.2729 46.2805 33.8473 46.5114L25.279 50.9963C24.5601 51.3599 23.6782 51.0897 23.2952 50.3885C23.1459 50.1058 23.0933 49.7831 23.1452 49.4685L24.8122 40.0221C24.8928 39.5536 24.7374 39.0757 24.3954 38.7407L17.4274 32.0379C16.8575 31.4686 16.8575 30.5537 17.4274 29.9843C17.66 29.7721 17.9491 29.6297 18.2609 29.5736L27.8128 28.1936C28.2897 28.1157 28.6993 27.816 28.913 27.3886L33.1805 18.813C33.3492 18.4653 33.6531 18.1994 34.0235 18.0757C34.3938 17.9519 34.7992 17.9808 35.1476 18.1558C35.4351 18.2995 35.6686 18.5297 35.8144 18.813Z" stroke="white" stroke-width="2" stroke-linecap="round" stroke-linejoin="round"/>
</svg>
