<svg width="70" height="70" viewBox="0 0 70 70" fill="none" xmlns="http://www.w3.org/2000/svg">
<rect width="70" height="70" rx="35" fill="#4DD79E"/>
<path d="M34.5 53C24.818 53 17 45.1302 17 35.5C17 25.818 24.8698 18 34.5 18C44.1302 18 52 25.8698 52 35.5C52 45.1302 44.182 53 34.5 53ZM34.5 19.8639C25.9053 19.8639 18.8639 26.8535 18.8639 35.4482C18.8639 44.0429 25.8535 51.0843 34.5 51.0843C43.1464 51.0843 50.1361 44.0947 50.1361 35.4482C50.1361 26.8535 43.0947 19.8639 34.5 19.8639Z" fill="white"/>
<path d="M40.713 42.5932C40.4541 42.5932 40.247 42.4896 40.0399 42.3343L33.8269 36.1213C33.6715 35.966 33.568 35.7071 33.568 35.4482V24.1094C33.568 23.5917 33.9822 23.1775 34.4999 23.1775C35.0177 23.1775 35.4319 23.5917 35.4319 24.1094V35.0858L41.3343 40.9881C41.6967 41.3506 41.6967 41.9719 41.3343 42.3343C41.1789 42.4896 40.9201 42.5932 40.713 42.5932V42.5932Z" fill="white"/>
</svg>
