<svg width="19" height="22" viewBox="0 0 19 22" fill="none" xmlns="http://www.w3.org/2000/svg">
<path d="M7.31982 16.1587C11.0716 16.1587 14.113 12.7653 14.113 8.57937C14.113 4.3934 11.0716 1 7.31982 1C3.56804 1 0.526611 4.3934 0.526611 8.57937C0.526611 12.7653 3.56804 16.1587 7.31982 16.1587Z" stroke="#00477A" stroke-linecap="round" stroke-linejoin="round"/>
<path d="M17.3209 21.0012C17.0208 21.0009 16.733 20.8676 16.5209 20.6306L13.6903 17.4725C13.4904 17.2331 13.3815 16.9164 13.3867 16.5891C13.3918 16.2618 13.5107 15.9496 13.7181 15.7181C13.9255 15.4867 14.2054 15.3541 14.4987 15.3483C14.792 15.3426 15.0759 15.464 15.2905 15.6872L18.121 18.8453C18.2792 19.0219 18.3868 19.2469 18.4304 19.4918C18.474 19.7367 18.4516 19.9905 18.366 20.2212C18.2804 20.4519 18.1354 20.6491 17.9494 20.7879C17.7634 20.9267 17.5447 21.0009 17.3209 21.0012Z" stroke="#00477A" stroke-linecap="round" stroke-linejoin="round"/>
<path d="M12.1241 13.9397L13.6866 15.683" stroke="#00477A" stroke-linecap="round" stroke-linejoin="round"/>
</svg>
